<svg width="171" height="55" viewBox="0 0 171 55" fill="none" xmlns="http://www.w3.org/2000/svg">
<g clip-path="url(#clip0_6_1425)">
<path d="M16.4375 22.9167H44.5625V37.8125H16.4375V22.9167Z" fill="#16405C"/>
<path d="M16.4375 37.8125C16.4375 39.6359 17.9191 41.3845 20.5563 42.6739C23.1935 43.9632 26.7704 44.6875 30.5 44.6875C34.2296 44.6875 37.8065 43.9632 40.4437 42.6739C43.0809 41.3845 44.5625 39.6359 44.5625 37.8125C44.5625 35.9891 43.0809 34.2405 40.4437 32.9511C37.8065 31.6618 34.2296 30.9375 30.5 30.9375C26.7704 30.9375 23.1935 31.6618 20.5563 32.9511C17.9191 34.2405 16.4375 35.9891 16.4375 37.8125Z" fill="#16405C"/>
<path d="M29.6562 9.39581L8.5625 20.7396C7.8125 21.1979 7.8125 22.4583 8.5625 22.9166L29.6562 34.2604C30.2188 34.4896 30.7812 34.4896 31.3438 34.2604L52.4375 22.9166C53.1875 22.4583 53.1875 21.1979 52.4375 20.7396L31.3438 9.39581C30.7812 9.05206 30.2188 9.05206 29.6562 9.39581Z" fill="#5DADE2"/>
<path d="M48.5 23.375L29.75 19.4792C29.2812 19.3646 28.7187 19.8229 28.625 20.3958C28.5312 20.9687 28.9062 21.6562 29.375 21.7708L47.375 25.4375V42.3958C47.375 43.0833 47.75 43.5417 48.3125 43.5417C48.875 43.5417 49.25 43.0833 49.25 42.3958V24.5208C49.25 23.9479 48.875 23.4896 48.5 23.375Z" fill="#16405C"/>
<path d="M46.4375 42.3958C46.4375 42.6968 46.4859 42.9948 46.5801 43.2729C46.6744 43.551 46.8125 43.8037 46.9866 44.0165C47.1607 44.2294 47.3674 44.3982 47.5949 44.5134C47.8224 44.6286 48.0662 44.6879 48.3125 44.6879C48.5588 44.6879 48.8026 44.6286 49.0301 44.5134C49.2576 44.3982 49.4643 44.2294 49.6384 44.0165C49.8125 43.8037 49.9506 43.551 50.0449 43.2729C50.1391 42.9948 50.1875 42.6968 50.1875 42.3958C50.1875 42.0949 50.1391 41.7968 50.0449 41.5187C49.9506 41.2407 49.8125 40.988 49.6384 40.7752C49.4643 40.5623 49.2576 40.3935 49.0301 40.2783C48.8026 40.1631 48.5588 40.1038 48.3125 40.1038C48.0662 40.1038 47.8224 40.1631 47.5949 40.2783C47.3674 40.3935 47.1607 40.5623 46.9866 40.7752C46.8125 40.988 46.6744 41.2407 46.5801 41.5187C46.4859 41.7968 46.4375 42.0949 46.4375 42.3958Z" fill="#16405C"/>
<path d="M51.125 45.8333C51.125 47.7812 48.3125 52.7083 48.3125 52.7083C48.3125 52.7083 45.5 47.7812 45.5 45.8333C45.5 43.8854 46.7188 42.3958 48.3125 42.3958C49.9062 42.3958 51.125 43.8854 51.125 45.8333Z" fill="#16405C"/>
</g>
<g filter="url(#filter0_d_6_1425)">
<path d="M76.55 10.672C77.586 10.672 78.4913 10.8773 79.266 11.288C80.0407 11.6987 80.638 12.2773 81.058 13.024C81.4873 13.7613 81.702 14.6153 81.702 15.586C81.702 16.5473 81.4873 17.4013 81.058 18.148C80.638 18.8947 80.036 19.4733 79.252 19.884C78.4773 20.2947 77.5767 20.5 76.55 20.5H72.868V10.672H76.55ZM76.396 18.428C77.3013 18.428 78.006 18.1807 78.51 17.686C79.014 17.1913 79.266 16.4913 79.266 15.586C79.266 14.6807 79.014 13.976 78.51 13.472C78.006 12.968 77.3013 12.716 76.396 12.716H75.262V18.428H76.396ZM91.0199 12.688L86.1199 24.21H83.5439L85.3359 20.234L82.1579 12.688H84.8319L86.6379 17.574L88.4299 12.688H91.0199ZM96.6456 12.604C97.5602 12.604 98.2882 12.9027 98.8296 13.5C99.3802 14.088 99.6556 14.9 99.6556 15.936V20.5H97.2756V16.258C97.2756 15.7353 97.1402 15.3293 96.8696 15.04C96.5989 14.7507 96.2349 14.606 95.7776 14.606C95.3202 14.606 94.9562 14.7507 94.6856 15.04C94.4149 15.3293 94.2796 15.7353 94.2796 16.258V20.5H91.8856V12.688H94.2796V13.724C94.5222 13.3787 94.8489 13.108 95.2596 12.912C95.6702 12.7067 96.1322 12.604 96.6456 12.604ZM100.843 16.58C100.843 15.7773 100.993 15.0727 101.291 14.466C101.599 13.8593 102.015 13.3927 102.537 13.066C103.06 12.7393 103.643 12.576 104.287 12.576C104.838 12.576 105.319 12.688 105.729 12.912C106.149 13.136 106.471 13.43 106.695 13.794V12.688H109.089V20.5H106.695V19.394C106.462 19.758 106.135 20.052 105.715 20.276C105.305 20.5 104.824 20.612 104.273 20.612C103.639 20.612 103.06 20.4487 102.537 20.122C102.015 19.786 101.599 19.3147 101.291 18.708C100.993 18.092 100.843 17.3827 100.843 16.58ZM106.695 16.594C106.695 15.9967 106.527 15.5253 106.191 15.18C105.865 14.8347 105.463 14.662 104.987 14.662C104.511 14.662 104.105 14.8347 103.769 15.18C103.443 15.516 103.279 15.9827 103.279 16.58C103.279 17.1773 103.443 17.6533 103.769 18.008C104.105 18.3533 104.511 18.526 104.987 18.526C105.463 18.526 105.865 18.3533 106.191 18.008C106.527 17.6627 106.695 17.1913 106.695 16.594ZM120.789 12.604C121.76 12.604 122.53 12.898 123.099 13.486C123.678 14.074 123.967 14.8907 123.967 15.936V20.5H121.587V16.258C121.587 15.754 121.452 15.3667 121.181 15.096C120.92 14.816 120.556 14.676 120.089 14.676C119.622 14.676 119.254 14.816 118.983 15.096C118.722 15.3667 118.591 15.754 118.591 16.258V20.5H116.211V16.258C116.211 15.754 116.076 15.3667 115.805 15.096C115.544 14.816 115.18 14.676 114.713 14.676C114.246 14.676 113.878 14.816 113.607 15.096C113.346 15.3667 113.215 15.754 113.215 16.258V20.5H110.821V12.688H113.215V13.668C113.458 13.3413 113.775 13.0847 114.167 12.898C114.559 12.702 115.002 12.604 115.497 12.604C116.085 12.604 116.608 12.73 117.065 12.982C117.532 13.234 117.896 13.5933 118.157 14.06C118.428 13.6307 118.796 13.2807 119.263 13.01C119.73 12.7393 120.238 12.604 120.789 12.604ZM126.845 11.876C126.425 11.876 126.08 11.7547 125.809 11.512C125.548 11.26 125.417 10.952 125.417 10.588C125.417 10.2147 125.548 9.90667 125.809 9.664C126.08 9.412 126.425 9.286 126.845 9.286C127.256 9.286 127.592 9.412 127.853 9.664C128.124 9.90667 128.259 10.2147 128.259 10.588C128.259 10.952 128.124 11.26 127.853 11.512C127.592 11.7547 127.256 11.876 126.845 11.876ZM128.035 12.688V20.5H125.641V12.688H128.035ZM129.294 16.594C129.294 15.782 129.458 15.0727 129.784 14.466C130.12 13.8593 130.582 13.3927 131.17 13.066C131.768 12.7393 132.449 12.576 133.214 12.576C134.194 12.576 135.011 12.8327 135.664 13.346C136.327 13.8593 136.761 14.5827 136.966 15.516H134.418C134.204 14.9187 133.788 14.62 133.172 14.62C132.734 14.62 132.384 14.7927 132.122 15.138C131.861 15.474 131.73 15.9593 131.73 16.594C131.73 17.2287 131.861 17.7187 132.122 18.064C132.384 18.4 132.734 18.568 133.172 18.568C133.788 18.568 134.204 18.2693 134.418 17.672H136.966C136.761 18.5867 136.327 19.3053 135.664 19.828C135.002 20.3507 134.185 20.612 133.214 20.612C132.449 20.612 131.768 20.4487 131.17 20.122C130.582 19.7953 130.12 19.3287 129.784 18.722C129.458 18.1153 129.294 17.406 129.294 16.594ZM76.424 41.598C75.7053 41.598 75.0613 41.4813 74.492 41.248C73.9227 41.0147 73.4653 40.6693 73.12 40.212C72.784 39.7547 72.6067 39.204 72.588 38.56H75.136C75.1733 38.924 75.2993 39.204 75.514 39.4C75.7287 39.5867 76.0087 39.68 76.354 39.68C76.7087 39.68 76.9887 39.6007 77.194 39.442C77.3993 39.274 77.502 39.0453 77.502 38.756C77.502 38.5133 77.418 38.3127 77.25 38.154C77.0913 37.9953 76.8907 37.8647 76.648 37.762C76.4147 37.6593 76.0787 37.5427 75.64 37.412C75.0053 37.216 74.4873 37.02 74.086 36.824C73.6847 36.628 73.3393 36.3387 73.05 35.956C72.7607 35.5733 72.616 35.074 72.616 34.458C72.616 33.5433 72.9473 32.8293 73.61 32.316C74.2727 31.7933 75.136 31.532 76.2 31.532C77.2827 31.532 78.1553 31.7933 78.818 32.316C79.4807 32.8293 79.8353 33.548 79.882 34.472H77.292C77.2733 34.1547 77.1567 33.9073 76.942 33.73C76.7273 33.5433 76.452 33.45 76.116 33.45C75.8267 33.45 75.5933 33.5293 75.416 33.688C75.2387 33.8373 75.15 34.0567 75.15 34.346C75.15 34.6633 75.2993 34.9107 75.598 35.088C75.8967 35.2653 76.3633 35.4567 76.998 35.662C77.6327 35.8767 78.146 36.082 78.538 36.278C78.9393 36.474 79.2847 36.7587 79.574 37.132C79.8633 37.5053 80.008 37.986 80.008 38.574C80.008 39.134 79.8633 39.6427 79.574 40.1C79.294 40.5573 78.8833 40.9213 78.342 41.192C77.8007 41.4627 77.1613 41.598 76.424 41.598ZM81.0053 37.594C81.0053 36.782 81.1686 36.0727 81.4953 35.466C81.8313 34.8593 82.2933 34.3927 82.8813 34.066C83.4786 33.7393 84.1599 33.576 84.9253 33.576C85.9053 33.576 86.7219 33.8327 87.3753 34.346C88.0379 34.8593 88.4719 35.5827 88.6773 36.516H86.1293C85.9146 35.9187 85.4993 35.62 84.8833 35.62C84.4446 35.62 84.0946 35.7927 83.8333 36.138C83.5719 36.474 83.4413 36.9593 83.4413 37.594C83.4413 38.2287 83.5719 38.7187 83.8333 39.064C84.0946 39.4 84.4446 39.568 84.8833 39.568C85.4993 39.568 85.9146 39.2693 86.1293 38.672H88.6773C88.4719 39.5867 88.0379 40.3053 87.3753 40.828C86.7126 41.3507 85.8959 41.612 84.9253 41.612C84.1599 41.612 83.4786 41.4487 82.8813 41.122C82.2933 40.7953 81.8313 40.3287 81.4953 39.722C81.1686 39.1153 81.0053 38.406 81.0053 37.594ZM94.7598 33.604C95.6558 33.604 96.3745 33.9027 96.9158 34.5C97.4572 35.088 97.7278 35.9 97.7278 36.936V41.5H95.3478V37.258C95.3478 36.7353 95.2125 36.3293 94.9418 36.04C94.6712 35.7507 94.3072 35.606 93.8498 35.606C93.3925 35.606 93.0285 35.7507 92.7578 36.04C92.4872 36.3293 92.3518 36.7353 92.3518 37.258V41.5H89.9578V31.14H92.3518V34.738C92.5945 34.3927 92.9258 34.1173 93.3458 33.912C93.7658 33.7067 94.2372 33.604 94.7598 33.604ZM102.947 41.612C102.182 41.612 101.491 41.4487 100.875 41.122C100.269 40.7953 99.7881 40.3287 99.4334 39.722C99.0881 39.1153 98.9154 38.406 98.9154 37.594C98.9154 36.7913 99.0928 36.0867 99.4474 35.48C99.8021 34.864 100.287 34.3927 100.903 34.066C101.519 33.7393 102.21 33.576 102.975 33.576C103.741 33.576 104.431 33.7393 105.047 34.066C105.663 34.3927 106.149 34.864 106.503 35.48C106.858 36.0867 107.035 36.7913 107.035 37.594C107.035 38.3967 106.853 39.106 106.489 39.722C106.135 40.3287 105.645 40.7953 105.019 41.122C104.403 41.4487 103.713 41.612 102.947 41.612ZM102.947 39.54C103.405 39.54 103.792 39.372 104.109 39.036C104.436 38.7 104.599 38.2193 104.599 37.594C104.599 36.9687 104.441 36.488 104.123 36.152C103.815 35.816 103.433 35.648 102.975 35.648C102.509 35.648 102.121 35.816 101.813 36.152C101.505 36.4787 101.351 36.9593 101.351 37.594C101.351 38.2193 101.501 38.7 101.799 39.036C102.107 39.372 102.49 39.54 102.947 39.54ZM111.862 41.612C111.096 41.612 110.406 41.4487 109.79 41.122C109.183 40.7953 108.702 40.3287 108.348 39.722C108.002 39.1153 107.83 38.406 107.83 37.594C107.83 36.7913 108.007 36.0867 108.361 35.48C108.716 34.864 109.202 34.3927 109.818 34.066C110.434 33.7393 111.124 33.576 111.89 33.576C112.655 33.576 113.346 33.7393 113.962 34.066C114.578 34.3927 115.063 34.864 115.418 35.48C115.772 36.0867 115.95 36.7913 115.95 37.594C115.95 38.3967 115.768 39.106 115.404 39.722C115.049 40.3287 114.559 40.7953 113.934 41.122C113.318 41.4487 112.627 41.612 111.862 41.612ZM111.862 39.54C112.319 39.54 112.706 39.372 113.024 39.036C113.35 38.7 113.514 38.2193 113.514 37.594C113.514 36.9687 113.355 36.488 113.038 36.152C112.73 35.816 112.347 35.648 111.89 35.648C111.423 35.648 111.036 35.816 110.728 36.152C110.42 36.4787 110.266 36.9593 110.266 37.594C110.266 38.2193 110.415 38.7 110.714 39.036C111.022 39.372 111.404 39.54 111.862 39.54ZM119.614 31.14V41.5H117.22V31.14H119.614Z" fill="#FCFCFC"/>
</g>
<defs>
<filter id="filter0_d_6_1425" x="66.588" y="7.28601" width="76.3784" height="44.326" filterUnits="userSpaceOnUse" color-interpolation-filters="sRGB">
<feFlood flood-opacity="0" result="BackgroundImageFix"/>
<feColorMatrix in="SourceAlpha" type="matrix" values="0 0 0 0 0 0 0 0 0 0 0 0 0 0 0 0 0 0 127 0" result="hardAlpha"/>
<feOffset dy="4"/>
<feGaussianBlur stdDeviation="3"/>
<feComposite in2="hardAlpha" operator="out"/>
<feColorMatrix type="matrix" values="0 0 0 0 0 0 0 0 0 0 0 0 0 0 0 0 0 0 0.25 0"/>
<feBlend mode="normal" in2="BackgroundImageFix" result="effect1_dropShadow_6_1425"/>
<feBlend mode="normal" in="SourceGraphic" in2="effect1_dropShadow_6_1425" result="shape"/>
</filter>
<clipPath id="clip0_6_1425">
<rect width="45" height="55" fill="white" transform="translate(8)"/>
</clipPath>
</defs>
</svg>
